<?xml version="1.0" standalone="no"?>
<!DOCTYPE svg PUBLIC "-//W3C//DTD SVG 1.1//EN" "http://www.w3.org/Graphics/SVG/1.1/DTD/svg11.dtd" >
<svg xmlns="http://www.w3.org/2000/svg">
<metadata>Generated by IcoMoon</metadata>
<defs>
<font id="szb" horiz-adv-x="512">
<font-face units-per-em="512" ascent="480" descent="-32" />
<missing-glyph horiz-adv-x="512" />
<glyph unicode="&#x20;" d="" horiz-adv-x="256" />
<glyph unicode="&#xe600;" d="M416 208.032h-144.048v-144.032h-31.744v144.032h-144.208v31.92h144.208v144.048h31.744v-144.048h144.048v-31.92z" />
<glyph unicode="&#xe601;" d="M336.032 448.048h-32v-64h32v64zM272.032 448.048h-32v-64h32v64zM400.032 448.048h-32v-64h32v64zM144.016 448.048h-32v-64h32v64zM208.016 448.048h-32v-64h32v64zM430.688 396.592v-31.696l1.344-12.832h-352l-1.344 19.744v28.32l-30.784-28.32v-343.52l30.784-28.336 353.344 0.128 32 32 0.064 283.104v56.64l-33.408 24.768zM112.016 32.064h-32v32h32v-32zM112.016 96.064h-32v32h32v-32zM112.016 160.064h-32v32h32v-32zM112.016 224.048h-32v32h32v-32zM112.016 288.048h-32v32h32v-32zM432.032 32.064h-288v32h288v-32zM432.032 96.064h-288v32h288v-32zM432.032 160.064h-288v32h288v-32zM432.032 224.048h-288v32h288v-32zM432.032 288.048h-288v32h288v-32z" />
<glyph unicode="&#xe602;" d="M427.44 357.296l-149.072-149.504-22.064 22.128 149.072 149.504c6.096 6.112 15.968 6.112 22.064 0s6.096-16.016 0-22.128zM144.224 335.712v-224h224v128h32v-160h-288v288h192v-32h-160z" />
<glyph unicode="&#xe603;" d="M419.984 316.672l-56.032 56.032 28 27.296h28.032l28-27.28v-28.016l-28-28.032zM195.872 92.56l-56.016 56.032 196.080 196.096 56.016-56.032-196.080-196.096zM258.688 349.104l-28.464-29.104h-54.208v112h144l-0.016-31.424-32.832-23.664-28.48-27.808zM256 416h-48v-48h48v48zM167.872 92.56l-56.032-28.016 28 56.032 28.032-28.016zM96.016 48h304l-0.016 160 32.016 32-0.016-192-32-32-304-0.576-31.984 32.576-0.016 272.576v64l16.016 15.424h63.984l0.016-32h-48v-16h47.984v-32h-47.984v-272z" />
<glyph unicode="&#xe604;" d="M128.016 112.224v-32.288h255.984v32.288h-255.984zM128.016 160.192v-32.288h255.984v32.288h-255.984zM128.016 208.16v-32.288h255.984v32.288h-255.984zM240.224 272.144v-32.304h143.76v32.304h-143.76zM240.224 320.096l-0.096-32.064h144l-0.144 32.064h-143.76zM128 320.096v-80.224h96.176v80.224h-96.176zM224.24 415.792h64.048v-47.696h-64.048v47.696zM336.128 352.032v80h-160v-80h160zM63.92 372.416v-329.040l29.552-27.408h325.056l29.568 27.408v329.040l-29.568 27.408-50.4 0.208v-32h48v-320h-320v320h48v32l-50.656-0.208-29.552-27.408z" />
<glyph unicode="&#xe605;" d="M448 80h-368v105.376l72 72 108.688-108.688c3.12-3.12 7.216-4.688 11.312-4.688s8.192 1.568 11.312 4.688l176 176c6.256 6.256 6.256 16.368 0 22.624s-16.368 6.256-22.624 0l-164.688-164.688-108.688 108.688c-6.256 6.256-16.368 6.256-22.624 0l-60.688-60.688v169.376c0 8.832-7.168 16-16 16s-16-7.168-16-16v-336c0-8.848 7.168-16 16-16h384c8.848 0 16 7.152 16 16s-7.152 16-16 16z" />
<glyph unicode="&#xe606;" d="M80 112v-32h224v32h-224zM80 176v-32h320v32h-320zM80 240v-32h288v32h-288zM80 304v-32h336v32h-336zM80 368v-32h192v32h-192z" />
<glyph unicode="&#xe607;" d="M256 64c88.352 0 160 71.632 160 160 0 88.352-71.648 160-160 160s-160-71.648-160-160c0-88.368 71.648-160 160-160zM256 368c79.408 0 144-64.592 144-144s-64.592-144-144-144-144 64.592-144 144 64.592 144 144 144zM311.424 256h-110.848l55.424-96 55.424 96z" />
<glyph unicode="&#xe608;" d="M256 384c-88.352 0-160-71.632-160-160 0-88.352 71.648-160 160-160s160 71.648 160 160c0 88.368-71.648 160-160 160zM256 80c-79.408 0-144 64.592-144 144 0 79.392 64.592 144 144 144s144-64.608 144-144c0-79.408-64.592-144-144-144zM200.576 192h110.848l-55.424 96-55.424-96z" />
<glyph unicode="&#xe609;" d="M256 360c-79.536 0-144-64.464-144-144s64.464-144 144-144 144 64.464 144 144-64.464 144-144 144zM256 104c-61.856 0-112 50.144-112 112s50.144 112 112 112 112-50.144 112-112c0-61.856-50.144-112-112-112zM320.848 192h-65.696c-8.368 0-15.152 6.272-15.152 14v84c0 7.728 7.632 14 16 14s16-8.272 16-16v-64h48c8.368 0 16-8.272 16-16s-6.784-16-15.152-16z" />
<glyph unicode="&#xe60a;" d="M367.968 111.936h-32v16.032h32v48h16v-64.032h-16zM367.968 256.016h16v-48.016h-16v48.016zM367.968 320.048h-32v16h48v-48h-16v32zM207.984 240h32v32.016h48v-32.016h32l-56-55.008-56 55.008zM223.984 336.048h80v-16h-80v16zM144 127.968v32h16v-32h32v-16.032h-48v16.032zM160 272.016h-16v64.032h48v-16h-32v-48.032zM160 192h-16v48h16v-48zM303.984 111.936h-80v16.032h80v-16.032z" />
<glyph unicode="&#xe60b;" d="M396.816 416h-281.616c-25.6 0-51.2-24.608-51.2-49.2v-221.328c0-24.592 25.6-49.472 51.2-49.472h281.616c25.584 0 51.184 24.88 51.184 49.472v221.328c0 24.592-25.6 49.2-51.184 49.2zM256.288 111.856c-8.88 0-16.064 7.184-16.064 16.048 0 8.88 7.184 16.064 16.064 16.064s16.064-7.184 16.064-16.064c-0.016-8.864-7.2-16.048-16.064-16.048zM416.32 159.904h-320.032v224.064h320.032v-224.064zM192 32h128l0.224 16h-128.112l-0.112-16z" />
<glyph unicode="&#xe60c;" d="M360 224v0 0 0zM250.896 112v0c-54.608 0-98.896 45.44-98.896 101.504 0 42.432 25.376 78.768 61.376 93.936v-0.032c1.056 0.368 2.224 0.592 3.408 0.592 5.664 0 10.24-4.704 10.24-10.496 0-4.56-2.848-8.464-6.816-9.904v0c-28.064-12.272-47.728-40.816-47.728-74.096 0-44.464 35.104-80.496 78.416-80.496s78.416 36.032 78.416 80.496c0 33.28-19.664 61.824-47.728 74.096v0c-3.968 1.44-6.832 5.344-6.832 9.904 0 5.792 4.592 10.496 10.24 10.496 1.2 0 2.336-0.224 3.408-0.592v0.032c36.016-15.168 61.376-51.504 61.376-93.936-0.016-56.064-44.272-101.504-98.88-101.504zM250.896 220.496c-5.664 0-10.24 4.704-10.24 10.496v94.512c0 5.792 4.576 10.496 10.24 10.496 5.648 0 10.224-4.704 10.24-10.496v-94.512c-0.016-5.792-4.608-10.496-10.24-10.496z" />
<glyph unicode="&#xe60d;" d="M338.32 201.472c-1.904-6.832-4.672-13.312-8.112-19.328 0.496-0.64 18.64-23.424 7.488-34.576l-5.552-5.552c-8.336-8.352-29.264 4.736-34.256 8.064-6.368-3.584-13.232-6.352-20.48-8.208l1.472-0.048c0 0-3.968-29.824-19.936-29.824h-5.488c-12.192 0-18.976 25.568-20.144 30.368-7.168 2-13.952 4.944-20.224 8.64l1.104-1.168c0 0-23.616-18.56-34.928-7.248l-4.992 4.16c-8.592 8.576 5.248 31.328 8.016 35.664-3.344 5.888-6.016 12.208-7.888 18.88-4.672 1.136-30.4 7.92-30.4 20.16v5.488c0 14.112 24.528 18.848 30.288 19.76 1.84 6.704 4.496 13.072 7.84 19.008-2.64 4-17.024 26.864-8.368 35.52l5.28 4.432c9.936 9.936 30.32-4.144 35.072-7.664 6.016 3.456 12.48 6.224 19.328 8.128 1.504 5.984 8.24 29.872 20.016 29.872h5.488c13.696 0 18.544-23.104 19.664-29.696 6.944-1.888 13.504-4.64 19.616-8.096 5.152 3.36 26.416 16.352 34.752 8.048l5.008-5.28c9.728-9.728-3.76-29.472-7.696-34.736 3.456-6.048 6.208-12.528 8.096-19.376 1.712-0.256 29.616-4.448 29.616-19.92v-5.488c0-11.68-23.472-18.4-29.68-19.984zM256.032 286.976c-34.8 0-63.008-28.208-63.008-63.008s28.208-63.008 63.008-63.008 63.008 28.208 63.008 63.008-28.208 63.008-63.008 63.008zM256.032 181.968c-23.184 0-42 18.816-42 42 0 23.2 18.816 42 42 42 23.2 0 42-18.8 42-42 0-23.184-18.8-42-42-42zM256.032 244.976c-11.6 0-21.008-9.408-21.008-21.008s9.408-21.008 21.008-21.008 21.008 9.408 21.008 21.008-9.408 21.008-21.008 21.008z" />
<glyph unicode="&#xe60e;" d="M218.672 210v28l23.328 23.312h27.984l23.328-23.312v-28l-23.328-23.312h-27.984l-23.328 23.312zM182.56 205.344c1.184-8.64 3.312-16.208 6.336-22.752l-29.712-29.712 25.664-25.664 29.712 29.712c6.56-3.056 14.128-5.152 22.768-6.336v-38.528h37.328v38.528c8.656 1.184 16.224 3.296 22.784 6.336l29.712-29.712 25.664 25.664-29.712 29.712c3.056 6.528 5.152 14.112 6.336 22.752h38.528v37.312h-38.528c-1.184 8.64-3.312 16.208-6.336 22.752l29.712 29.712-25.664 25.664-29.712-29.712c-6.56 3.056-14.128 5.136-22.784 6.336v38.528h-37.328v-38.528c-8.64-1.184-16.208-3.296-22.768-6.336l-29.712 29.712-25.664-25.664 29.712-29.712c-3.024-6.544-5.152-14.112-6.336-22.752h-38.544v-37.312h38.544z" />
<glyph unicode="&#xe60f;" d="M353.36 276.016l-10.8 3.264-71.792-71.424 0.864-0.896c7.312-7.264 6.88-19.472-0.96-27.248l-69.888-69.584c-7.808-7.776-20.080-8.208-27.392-0.944l-15.856 15.792c-7.312 7.264-6.88 19.472 0.944 27.248l69.888 69.568c7.824 7.792 20.096 8.208 27.392 0.944l0.912-0.848 71.776 71.424-3.28 10.752 44.832 30.592 14.112-14.032-30.752-44.608zM255.376 248.688l-2.912 2.896c-7.152-7.12-18.768-7.12-25.92 0l-39.824-39.648c-13.424 1.984-26.512 8.016-37.232 18.16-21.632 20.448-27.232 51.36-15.744 76.48l38.608-37.776c4.464-4.368 11.552-4.464 15.808-0.208l15.472 15.392c4.288 4.256 4.192 11.296-0.208 15.744l-37.952 38.432c25.232 11.424 56.304 5.84 76.848-15.68 17.040-17.856 22.544-42.272 16.768-63.92l3.072-3.152-6.784-6.72zM300.608 203.68l-2.912 2.912 6.256 6.208 57.408-58.608c8.688-8.896 8.192-23.504-1.056-32.704l-8.816-8.768c-9.248-9.216-23.92-9.712-32.864-1.056l-42.816 41.568 24.8 24.688c-7.152 7.104-7.152 18.656 0 25.76z" />
<glyph unicode="&#xe610;" d="M500.672 397.881l-23.31-23.296-72.185 72.156 23.31 23.296c13.291 13.284 34.83 13.284 48.128 0l24.064-24.050c13.283-13.284 13.283-34.823-0.007-48.107zM64.078 32.022h383.858v243.655h28.473v-238.201c0-18.731-15.182-33.913-33.913-33.913h-373.027c-18.73 0-33.913 15.182-33.913 33.913v373.027c0 18.731 15.182 33.913 33.913 33.913h238.343v-28.509h-243.733v-383.886zM187.157 230.208l73.564-73.529-108.096-34.51 34.531 108.039zM452.551 349.781l-167.694-167.616-72.199 72.163 167.694 167.609 72.199-72.157z" />
<glyph unicode="&#xe611;" d="M400 480h112v-112l-112 112zM0 352h416v-32h-416v32zM0 240h416v-32h-416v32zM0 144h416v-32h-416v32z" />
<glyph unicode="&#xe612;" d="M267.312 224l106.336 106.336c3.12 3.12 3.12 8.192 0 11.312s-8.192 3.12-11.312 0l-106.336-106.336-106.336 106.352c-3.12 3.12-8.192 3.12-11.312 0s-3.12-8.192 0-11.312l106.336-106.352-106.336-106.336c-3.12-3.12-3.12-8.192 0-11.312 1.552-1.568 3.6-2.352 5.648-2.352s4.096 0.784 5.664 2.336l106.336 106.352 106.336-106.336c1.568-1.568 3.616-2.352 5.664-2.352s4.096 0.784 5.664 2.336c3.12 3.12 3.12 8.192 0 11.312l-106.352 106.352z" />
<glyph unicode="&#xe613;" d="M256 480c-141.376 0-256-114.624-256-256 0-141.392 114.624-256 256-256 141.392 0 256 114.608 256 256 0 141.376-114.608 256-256 256zM373.6 191.808c-2.72-9.744-6.656-19.008-11.568-27.616 0.688-0.912 26.608-33.472 10.672-49.408l-7.936-7.904c-11.888-11.952-41.792 6.752-48.928 11.504-9.088-5.104-18.912-9.072-29.248-11.696l2.080-0.080c0 0-5.664-42.608-28.48-42.608h-7.84c-17.408 0-27.12 36.512-28.768 43.392-10.256 2.864-19.936 7.040-28.88 12.32l1.552-1.648c0 0-33.728-26.512-49.888-10.352l-7.12 5.936c-12.272 12.272 7.504 44.752 11.424 50.944-4.784 8.432-8.576 17.456-11.248 26.992-6.688 1.616-43.424 11.312-43.424 28.768v7.84c0 20.176 35.040 26.928 43.264 28.24 2.64 9.584 6.432 18.672 11.2 27.152-3.776 5.712-24.336 38.384-11.968 50.736l7.552 6.336c14.192 14.192 43.328-5.92 50.112-10.944 8.592 4.928 17.84 8.896 27.616 11.616 2.128 8.544 11.776 42.672 28.576 42.672h7.84c19.568 0 26.512-33.008 28.112-42.416 9.92-2.704 19.28-6.624 28-11.568 7.376 4.8 37.728 23.36 49.648 11.488l7.152-7.536c13.904-13.904-5.376-42.112-10.992-49.632 4.96-8.64 8.88-17.904 11.552-27.664 2.48-0.368 42.336-6.368 42.336-28.48v-7.84c0-16.672-33.536-26.256-42.4-28.544zM256.048 313.968c-49.712 0-90-40.304-90-90.016s40.288-90 90-90 90 40.288 90 90-40.288 90.016-90 90.016zM256.048 163.952c-33.12 0-60 26.88-60 60 0 33.152 26.88 60 60 60 33.136 0 60-26.848 60-60 0-33.12-26.864-60-60-60zM256.048 253.952c-16.56 0-30-13.44-30-30s13.44-30 30-30 30 13.44 30 30-13.44 30-30 30z" />
<glyph unicode="&#xe614;" d="M256 480c-141.376 0-256-114.624-256-256 0-141.392 114.624-256 256-256 141.392 0 256 114.608 256 256 0 141.376-114.608 256-256 256zM373.664 117.664c3.12-3.12 3.12-8.192 0-11.312-1.568-1.568-3.616-2.352-5.664-2.352s-4.096 0.784-5.664 2.336l-106.336 106.352-106.336-106.336c-1.568-1.568-3.616-2.352-5.664-2.352s-4.096 0.784-5.664 2.336c-3.12 3.12-3.12 8.192 0 11.312l106.352 106.352-106.352 106.336c-3.12 3.12-3.12 8.192 0 11.312s8.192 3.12 11.312 0l106.352-106.336 106.336 106.336c3.12 3.12 8.192 3.12 11.312 0s3.12-8.192 0-11.312l-106.336-106.336 106.352-106.336z" />
<glyph unicode="&#xe615;" d="M112 112h-112v112l112-112zM96 480h416v-32h-416v32zM96 368h416v-32h-416v32zM96 272h416v-32h-416v32z" />
<glyph unicode="&#xe616;" d="M256 448c-123.2 0-224-100.8-224-224s100.8-224 224-224 224 100.8 224 224-100.8 224-224 224zM256 16c-115.2 0-208 92.8-208 208s92.8 208 208 208 208-92.8 208-208-92.8-208-208-208zM256 320h-32l-112-96 112-96h32l-80 80h192v32h-192z" />
</font>
</defs>
</svg>
